<?xml version="1.0" standalone="no"?>
<svg version="1.0" xmlns="http://www.w3.org/2000/svg"
 width="676.000000pt" height="138.000000pt" viewBox="0 0 676.000000 138.000000"
 preserveAspectRatio="xMidYMid meet">
<g transform="translate(0.000000,138.000000) scale(0.100000,-0.100000)"
fill="#22378d" stroke="none">
<path d="M608 1344 c-27 -13 -48 -27 -48 -29 0 -8 91 -189 102 -202 8 -10 21
-7 58 12 27 14 51 28 53 32 7 10 -95 206 -108 210 -5 1 -31 -9 -57 -23z"/>
<path d="M425 1030 c-345 -73 -520 -429 -364 -740 60 -119 189 -229 300 -255
23 -6 28 -1 67 83 38 78 44 101 52 195 8 95 7 115 -10 171 -11 35 -29 75 -40
88 -18 23 -103 65 -254 124 -58 22 -76 45 -57 68 21 25 50 20 174 -29 64 -25
127 -45 142 -45 35 0 122 45 136 72 13 23 44 257 35 265 -10 10 -140 12 -181
3z m55 -87 c88 -52 52 -183 -50 -183 -84 0 -129 90 -79 154 37 47 83 57 129
29z"/>
<path d="M472 835 c-14 -15 -37 -25 -60 -27 -36 -4 -36 -4 -9 -12 36 -11 74 0
87 25 18 32 7 40 -18 14z"/>
<path d="M680 881 c-16 -162 -6 -214 79 -436 37 -96 60 -168 57 -181 -9 -33
-96 -134 -122 -140 -26 -7 -54 10 -54 32 0 7 20 36 45 64 49 55 50 65 16 125
-15 25 -23 30 -52 27 -48 -3 -66 -31 -75 -110 -5 -52 -17 -87 -55 -160 l-49
-92 58 0 c117 0 244 50 335 131 198 176 229 478 70 689 -46 61 -142 138 -206
165 l-35 14 -12 -128z"/>
<path d="M1633 870 c-115 -24 -211 -98 -256 -198 -18 -38 -22 -66 -22 -152 0
-93 3 -112 26 -161 66 -140 184 -197 383 -186 56 3 118 11 139 17 l37 11 0 91
0 90 -27 -6 c-67 -15 -210 -18 -249 -6 -81 26 -123 97 -109 187 15 99 104 145
236 123 35 -6 73 -12 83 -13 16 -2 26 13 49 72 15 40 26 79 23 86 -12 32 -226
64 -313 45z"/>
<path d="M3075 867 c-112 -30 -193 -94 -242 -195 -25 -50 -28 -68 -28 -152 0
-87 3 -101 33 -162 38 -77 92 -130 171 -167 49 -23 68 -26 161 -26 93 0 112 3
161 26 123 58 196 164 206 300 11 167 -81 309 -237 364 -62 22 -165 27 -225
12z m185 -199 c50 -34 72 -71 78 -127 10 -109 -53 -189 -156 -198 -156 -14
-244 184 -134 301 35 37 56 45 123 45 42 1 64 -4 89 -21z"/>
<path d="M4784 870 c-89 -19 -187 -83 -229 -150 -59 -94 -72 -253 -27 -352 87
-198 360 -270 554 -147 51 33 83 70 118 139 36 68 40 213 9 295 -30 81 -112
164 -192 193 -66 25 -173 35 -233 22z m181 -204 c30 -20 62 -68 71 -109 28
-130 -97 -248 -220 -207 -78 25 -117 80 -118 164 -1 122 86 196 204 175 20 -3
49 -14 63 -23z"/>
<path d="M6295 867 c-69 -18 -150 -64 -187 -106 -17 -19 -43 -60 -57 -91 -23
-48 -26 -68 -26 -155 0 -82 4 -109 22 -147 32 -71 103 -141 176 -174 54 -25
74 -28 157 -29 109 0 157 12 224 57 99 65 150 170 150 303 0 66 -5 91 -29 143
-35 79 -112 152 -190 181 -71 27 -175 34 -240 18z m185 -199 c59 -41 75 -72
75 -146 0 -108 -50 -167 -152 -178 -57 -6 -124 23 -157 69 -32 43 -34 150 -4
201 30 52 78 76 149 76 42 0 65 -6 89 -22z"/>
<path d="M2110 775 l0 -85 95 0 95 0 0 -260 0 -261 98 3 97 3 3 257 2 257 87
3 86 3 14 60 c7 33 15 70 18 83 l5 22 -300 0 -300 0 0 -85z"/>
<path d="M3786 838 c-2 -13 -9 -108 -15 -213 -13 -249 -25 -285 -89 -285 -22
0 -27 -15 -38 -109 l-7 -64 85 5 c173 11 200 52 223 338 7 96 14 176 14 178 1
2 36 2 79 0 l77 -3 3 -258 2 -257 95 0 95 0 0 345 0 345 -260 0 -260 0 -4 -22z"/>
<path d="M5324 833 c3 -16 10 -54 16 -85 l11 -58 90 0 89 0 0 -260 0 -260 95
0 95 0 2 257 3 258 87 3 c98 3 89 -5 112 105 l14 67 -310 0 -310 0 6 -27z"/>
</g>
</svg>
